<?xml version="1.0" encoding="UTF-8"?>
<svg version="1.1" xmlns="http://www.w3.org/2000/svg" width="371" height="142">
<path d="M0 0 C2.82633291 2.3662322 4.13649596 3.92641992 5.6875 7.25 C5.69921875 10.703125 5.69921875 10.703125 5.375 14.5 C5.21545798 20.32898181 5.64745894 23.22528768 9.625 27.5625 C10.96692331 28.80502158 12.3185418 30.03732878 13.6875 31.25 C14.0175 31.91 14.3475 32.57 14.6875 33.25 C19.94832111 32.59580463 22.00780913 30.53742003 25.31640625 26.57421875 C27.22475029 23.33927657 27.04496673 20.95001484 26.76171875 17.29296875 C26.64572438 14.10007095 27.56355624 12.5794867 29.6875 10.25 C33.45243128 8.07792426 35.9585126 7.25 40.3125 7.25 C44.34096636 8.44361966 46.03039636 10.04584561 48.6875 13.25 C50.28805535 16.45111071 50.04231231 19.76882263 49.6875 23.25 C48.20905431 27.16353272 47.06099322 28.05633685 43.3125 30 C39.6875 31.25 39.6875 31.25 36.8125 31.8125 C36.11125 31.956875 35.41 32.10125 34.6875 32.25 C34.1925 33.24 34.1925 33.24 33.6875 34.25 C34.37714844 34.20359375 35.06679687 34.1571875 35.77734375 34.109375 C43.42963423 33.81545986 49.66236498 34.60492065 55.5078125 39.8984375 C63.27199034 48.48779366 62.89691256 58.43023017 62.92773438 69.45288086 C62.93742579 71.54646771 62.96849504 73.63906522 63 75.73242188 C63.07228562 84.85317031 62.83776279 93.8119093 56.33984375 100.90234375 C50.06334068 106.02147746 42.78431573 108.34522713 34.78051758 108.41113281 C33.8321553 108.42074036 32.88379303 108.4303479 31.9066925 108.44024658 C30.89205429 108.44449646 29.87741608 108.44874634 28.83203125 108.453125 C27.24680916 108.46167511 27.24680916 108.46167511 25.62956238 108.47039795 C23.3945719 108.47983216 21.15956761 108.48637565 18.92456055 108.49023438 C15.52953368 108.49991578 12.13511869 108.53094491 8.74023438 108.5625 C6.56250357 108.5690332 4.38476846 108.57428243 2.20703125 108.578125 C1.20251419 108.5904718 0.19799713 108.6028186 -0.83695984 108.61553955 C-9.39111912 108.58891237 -17.86694156 107.23946181 -24.77734375 101.83203125 C-33.19174906 93.16069753 -32.49434564 82.29740155 -32.5 71 C-32.51224609 69.72769531 -32.52449219 68.45539063 -32.53710938 67.14453125 C-32.56735294 47.60718679 -32.56735294 47.60718679 -26.125 39.94140625 C-19.43563724 33.69896213 -11.05902926 33.52037185 -2.3125 33.25 C-5.26571093 29.62993499 -7.09882431 28.051385 -11.75 27.25 C-16.62965606 26.37979467 -18.88804502 24.84150157 -22.3125 21.25 C-24.60083963 17.29741337 -24.70819707 13.76094661 -24.3125 9.25 C-22.23064936 3.94128086 -19.7561655 0.4162949 -14.5625 -2.0625 C-9.03093091 -3.23263961 -5.00105162 -2.64206501 0 0 Z M-15.3125 52.25 C-16.85209877 55.32919755 -16.51715118 58.57963648 -16.55078125 61.9609375 C-16.558853 62.72548248 -16.56692474 63.49002747 -16.57524109 64.27774048 C-16.58907813 65.89672581 -16.59980199 67.51574026 -16.60766602 69.13476562 C-16.62488609 71.60863566 -16.66877351 74.08117146 -16.71289062 76.5546875 C-16.72301715 78.12759434 -16.73153338 79.70051254 -16.73828125 81.2734375 C-16.75578934 82.01210052 -16.77329742 82.75076355 -16.79133606 83.5118103 C-16.77745984 86.80336361 -16.66089185 88.79737411 -14.62309265 91.44485474 C-11.80451959 93.64685855 -10.41638838 93.7557844 -6.87304688 93.76757812 C-5.78511841 93.78018677 -4.69718994 93.79279541 -3.57629395 93.80578613 C-2.40642944 93.79768921 -1.23656494 93.78959229 -0.03125 93.78125 C1.17438599 93.7850769 2.38002197 93.78890381 3.62219238 93.79284668 C6.17082555 93.79556826 8.71948654 93.78819005 11.26806641 93.77148438 C15.17283302 93.7500804 19.07575948 93.77128003 22.98046875 93.796875 C25.45573323 93.79423177 27.93099657 93.7891069 30.40625 93.78125 C32.16104675 93.79339539 32.16104675 93.79339539 33.95129395 93.80578613 C35.03922241 93.79317749 36.12715088 93.78056885 37.24804688 93.76757812 C38.2041687 93.76439575 39.16029053 93.76121338 40.14538574 93.75793457 C43.4579397 93.09606004 44.64874954 91.90133017 46.6875 89.25 C47.07322135 86.39678818 47.22584429 83.93839362 47.18359375 81.08984375 C47.1857766 79.91041954 47.1857766 79.91041954 47.18800354 78.70716858 C47.18634683 77.04880051 47.17481089 75.39041671 47.15405273 73.73217773 C47.12505747 71.1925339 47.13345503 68.65497308 47.14648438 66.11523438 C47.14024784 64.50259402 47.13185755 62.88996025 47.12109375 61.27734375 C47.12402939 60.51791977 47.12696503 59.75849579 47.12998962 58.97605896 C47.07709787 54.90175836 47.07709787 54.90175836 45.34790039 51.31079102 C42.1762855 49.28452036 39.40022678 49.11709446 35.74462891 49.08886719 C34.73993561 49.07925964 33.73524231 49.0696521 32.70010376 49.05975342 C31.07351334 49.0533786 31.07351334 49.0533786 29.4140625 49.046875 C28.29816742 49.04117493 27.18227234 49.03547485 26.03256226 49.02960205 C23.67048084 49.02015166 21.30838624 49.01361792 18.94628906 49.00976562 C15.33375049 49.00005711 11.72178009 48.96903218 8.109375 48.9375 C5.81510755 48.93097019 3.52083602 48.92571963 1.2265625 48.921875 C0.14621735 48.9095282 -0.93412781 48.8971814 -2.04721069 48.88446045 C-9.21158586 48.79846466 -9.21158586 48.79846466 -15.3125 52.25 Z " fill="#FCC818" transform="translate(55.3125,14.75)"/>
<path d="M0 0 C4.95 0 9.9 0 15 0 C16.00911458 3.09244792 17.01822917 6.18489583 18.02734375 9.27734375 C18.73856668 11.88123475 18.73856668 11.88123475 20 13 C20.4640625 12.0615625 20.928125 11.123125 21.40625 10.15625 C26.60361152 0.73901831 26.60361152 0.73901831 30.99658203 -0.61572266 C35.71520259 -1.15563252 40.31745347 -0.67221834 45 0 C42.09958868 5.42159211 38.73523252 10.02757894 34.8125 14.75 C33.73174925 16.05404636 32.65475191 17.36121506 31.58203125 18.671875 C31.10999268 19.2400293 30.6379541 19.80818359 30.15161133 20.39355469 C28.79710322 22.11582613 28.79710322 22.11582613 28 25 C28.69765749 27.520401 28.69765749 27.520401 29.87109375 30.25390625 C30.28037109 31.27291016 30.68964844 32.29191406 31.11132812 33.34179688 C31.54896484 34.40462891 31.98660156 35.46746094 32.4375 36.5625 C33.29321167 38.66681324 34.14621831 40.77222915 34.99609375 42.87890625 C35.37950928 43.8129126 35.7629248 44.74691895 36.15795898 45.70922852 C37 48 37 48 37 50 C32.38 50 27.76 50 23 50 C18 38.375 18 38.375 18 35 C14.52524949 38.1588641 12.24890735 41.22011296 9.8125 45.25 C6.72886499 49.71002146 6.72886499 49.71002146 3.8203125 50.8671875 C1.17198288 51.15372808 -1.3379219 51.1011373 -4 51 C-5.14597656 51.06703125 -6.29195313 51.1340625 -7.47265625 51.203125 C-14.01769131 51.51112665 -19.09740903 51.55475795 -24.4453125 47.4921875 C-26.85042267 45.18376517 -28.50915827 42.98168347 -30 40 C-30 38.35 -30 36.7 -30 35 C-39.57 35 -49.14 35 -59 35 C-56.7592547 40.02822886 -56.7592547 40.02822886 -54.02734375 40.55859375 C-49.54248573 40.46098764 -49.54248573 40.46098764 -46 38 C-42.9609375 37.8046875 -42.9609375 37.8046875 -39.375 37.875 C-38.18648438 37.89304688 -36.99796875 37.91109375 -35.7734375 37.9296875 C-34.40058594 37.96449219 -34.40058594 37.96449219 -33 38 C-33.99141696 42.54319229 -35.82207502 45.3424167 -39.5859375 48.20703125 C-45.68509506 51.8485114 -52.0851333 51.73120653 -59 51 C-63.95836308 49.40624044 -67.43231568 46.55093303 -70 42 C-72.37649774 35.74549004 -72.29881248 30.52616244 -70.0390625 24.2578125 C-67.44326747 18.61732556 -63.76243713 15.27784586 -58.09765625 12.7578125 C-51.7183985 10.45320169 -46.68976746 10.72058568 -40.3359375 12.8515625 C-34.71026839 15.61735969 -32.11319696 20.30610819 -30 26 C-29.63648438 25.39671875 -29.27296875 24.7934375 -28.8984375 24.171875 C-25.26189384 18.39070303 -22.31251979 14.28300822 -15.4921875 12.25390625 C-7.88382228 10.54785221 -2.25744906 11.58085031 5 14 C3.35 9.38 1.7 4.76 0 0 Z M-55 23 C-55.66 24.32 -56.32 25.64 -57 27 C-52.38 27 -47.76 27 -43 27 C-44.55987075 22.97987115 -44.55987075 22.97987115 -47.3125 21.625 C-50.67696872 20.84256541 -52.05079946 21.2464213 -55 23 Z M-15 25 C-16.97417995 28.06338267 -18.04583023 30.01465004 -17.875 33.6875 C-16.89075219 36.28872637 -16.29047075 37.420365 -14 39 C-10.43682497 40.08444457 -8.69706457 40.30100515 -5.25 38.8125 C-2.83432947 36.86654318 -1.82670116 35.97612417 -1 33 C-1.15950878 28.07170965 -1.15950878 28.07170965 -3.75 24.0625 C-7.77248323 22.16299403 -11.39174587 22.35394697 -15 25 Z " fill="#FEC267" transform="translate(309,50)"/>
<path d="M0 0 C4.29 0 8.58 0 13 0 C9.97461739 17.40560551 6.72776483 34.73002069 3 52 C1.51886719 51.98259766 1.51886719 51.98259766 0.0078125 51.96484375 C-1.27351563 51.95582031 -2.55484375 51.94679687 -3.875 51.9375 C-5.78925781 51.92009766 -5.78925781 51.92009766 -7.7421875 51.90234375 C-10.88664652 51.76823431 -10.88664652 51.76823431 -13 53 C-18.63520603 53.59858031 -24.21665605 54.12971935 -29.0625 50.8125 C-33.95095234 46.60200821 -35.68622196 42.1377804 -36.3125 35.875 C-35.74601693 28.85060993 -33.51032993 22.99991451 -28.4375 18 C-23.75203845 14.32478666 -18.92500615 13 -13 13 C-9.73314092 13.67980883 -7.09346923 14.68147213 -4 16 C-2.68 10.72 -1.36 5.44 0 0 Z M-22.375 29.75 C-23.32661064 33.17579831 -22.92941425 35.59214776 -22 39 C-19.20249668 41.55771732 -17.72194838 42.01473364 -13.9375 41.9375 C-10.47429959 40.83222327 -9.10548127 39.96326994 -7 37 C-5.75161619 33.59471004 -5.75161619 33.59471004 -6 30 C-8.25347439 26.88490305 -9.67979349 25.2640413 -13.5 24.5 C-17.31398575 25.26279715 -19.95563836 26.67081246 -22.375 29.75 Z " fill="#FEC267" transform="translate(228,48)"/>
<path d="M0 0 C4.95 0 9.9 0 15 0 C16.00911458 3.09244792 17.01822917 6.18489583 18.02734375 9.27734375 C18.73856668 11.88123475 18.73856668 11.88123475 20 13 C20.4640625 12.0615625 20.928125 11.123125 21.40625 10.15625 C26.60361152 0.73901831 26.60361152 0.73901831 30.99658203 -0.61572266 C35.71520259 -1.15563252 40.31745347 -0.67221834 45 0 C42.09958868 5.42159211 38.73523252 10.02757894 34.8125 14.75 C33.73174925 16.05404636 32.65475191 17.36121506 31.58203125 18.671875 C31.10999268 19.2400293 30.6379541 19.80818359 30.15161133 20.39355469 C28.79710322 22.11582613 28.79710322 22.11582613 28 25 C28.69765749 27.520401 28.69765749 27.520401 29.87109375 30.25390625 C30.48500977 31.78241211 30.48500977 31.78241211 31.11132812 33.34179688 C31.54896484 34.40462891 31.98660156 35.46746094 32.4375 36.5625 C33.29321167 38.66681324 34.14621831 40.77222915 34.99609375 42.87890625 C35.37950928 43.8129126 35.7629248 44.74691895 36.15795898 45.70922852 C37 48 37 48 37 50 C32.38 50 27.76 50 23 50 C18 38.375 18 38.375 18 35 C15.34670725 37.41208432 13.34039904 39.34423126 11.671875 42.55859375 C10.00596832 45.64928904 8.70340197 47.73276991 6 50 C0.77304777 51.25582619 -4.71476532 50.57103376 -10 50 C-7.05433304 45.44950033 -3.87282284 41.17880175 -0.5 36.9375 C-0.02691406 36.33873047 0.44617188 35.73996094 0.93359375 35.12304688 C1.39894531 34.53458984 1.86429687 33.94613281 2.34375 33.33984375 C3.01470703 32.48350342 3.01470703 32.48350342 3.69921875 31.60986328 C4.88013848 30.14834212 6.13964376 28.75120205 7.40625 27.36328125 C9.24530494 25.14793338 9.24530494 25.14793338 8.875 22.640625 C8.58625 21.85171875 8.2975 21.0628125 8 20.25 C7.53787109 18.950625 7.53787109 18.950625 7.06640625 17.625 C5.77506964 14.44632527 4.43753411 11.30228062 2.96484375 8.203125 C1.79847563 5.53983908 0.91942952 2.75828857 0 0 Z " fill="#FE3892" transform="translate(309,50)"/>
<path d="M0 0 C4.62 0 9.24 0 14 0 C14.46026914 2.56216485 14.91822206 5.12471221 15.375 7.6875 C15.50132812 8.38939453 15.62765625 9.09128906 15.7578125 9.81445312 C16.95093802 16.52578417 17.9812246 23.26025798 19 30 C19.44915771 29.12674072 19.89831543 28.25348145 20.36108398 27.35375977 C22.02338913 24.12311357 23.68819007 20.89375912 25.35375977 17.66479492 C26.07514829 16.26540845 26.79585369 14.86566961 27.51586914 13.46557617 C28.5491611 11.4565949 29.58487952 9.44888147 30.62109375 7.44140625 C31.10551186 6.49763878 31.10551186 6.49763878 31.59971619 5.5348053 C33.88612829 1.11387171 33.88612829 1.11387171 35 0 C37.53049402 -0.07313567 40.03304837 -0.09247527 42.5625 -0.0625 C43.62887695 -0.05573242 43.62887695 -0.05573242 44.71679688 -0.04882812 C46.47790013 -0.03700864 48.23896036 -0.01907263 50 0 C29.65921788 42.34078212 29.65921788 42.34078212 22 50 C17.71 50 13.42 50 9 50 C6.03 33.5 3.06 17 0 0 Z " fill="#FEC266" transform="translate(131,50)"/>
<path d="M0 0 C4.29 0 8.58 0 13 0 C12.29073361 7.56013492 10.95966155 14.92655562 9.5 22.375 C9.27441406 23.54933594 9.04882812 24.72367188 8.81640625 25.93359375 C7.13699777 34.5890067 7.13699777 34.5890067 6 38 C1.71 38 -2.58 38 -7 38 C-5.39647019 25.17176154 -2.71715157 12.63164357 0 0 Z " fill="#FEC46A" transform="translate(180,62)"/>
<path d="M0 0 C5.10834146 0.24645507 8.95533179 2.36706828 13.25 4.9375 C14.18585938 5.47793945 14.18585938 5.47793945 15.140625 6.02929688 C17.68991601 7.52096176 19.90330229 8.90330229 22 11 C22.37890625 13.43359375 22.37890625 13.43359375 22 16 C20.27734375 17.66015625 20.27734375 17.66015625 17.9375 19.0625 C17.11507812 19.56136719 16.29265625 20.06023437 15.4453125 20.57421875 C14.23488281 21.27998047 14.23488281 21.27998047 13 22 C12.03707031 22.62841797 12.03707031 22.62841797 11.0546875 23.26953125 C7.2581679 25.67853359 4.48265741 26.62548708 0 26 C-2.53054337 23.46945663 -2.25683229 22.56451118 -2.265625 19.0625 C-2.26820312 18.08539063 -2.27078125 17.10828125 -2.2734375 16.1015625 C-2.26570313 15.07804687 -2.25796875 14.05453125 -2.25 13 C-2.25773437 11.97648437 -2.26546875 10.95296875 -2.2734375 9.8984375 C-2.27085938 8.92132813 -2.26828125 7.94421875 -2.265625 6.9375 C-2.26336914 6.03902344 -2.26111328 5.14054687 -2.25878906 4.21484375 C-2 2 -2 2 0 0 Z " fill="#FE3B95" transform="translate(62,73)"/>
<path d="M0 0 C4.29 0 8.58 0 13 0 C12.125 8.75 12.125 8.75 11 11 C6.71 11 2.42 11 -2 11 C-1.125 2.25 -1.125 2.25 0 0 Z " fill="#FEC979" transform="translate(183,47)"/>
<path d="M0 0 C4.33333333 0 8.66666667 0 13 0 C13 3.3 13 6.6 13 10 C8.66666667 10 4.33333333 10 0 10 C0 6.7 0 3.4 0 0 Z " fill="#C83F3F" transform="translate(138,109)"/>
<path d="M0 0 C1.32 0 2.64 0 4 0 C4.33 0.66 4.66 1.32 5 2 C5.33 1.34 5.66 0.68 6 0 C6.99 0 7.98 0 9 0 C9.33 0.66 9.66 1.32 10 2 C10.33 1.34 10.66 0.68 11 0 C12.32 0 13.64 0 15 0 C14.34 3.3 13.68 6.6 13 10 C9.37 10 5.74 10 2 10 C1.34 6.7 0.68 3.4 0 0 Z " fill="#C63737" transform="translate(235,109)"/>
<path d="M0 0 C4.875 0.875 4.875 0.875 6 2 C6.33 1.34 6.66 0.68 7 0 C7.99 0 8.98 0 10 0 C10 3.3 10 6.6 10 10 C9.278125 9.814375 8.55625 9.62875 7.8125 9.4375 C4.87173027 8.98004693 2.85896942 9.26483643 0 10 C0 6.7 0 3.4 0 0 Z " fill="#CB4747" transform="translate(208,109)"/>
<path d="M0 0 C0.33 2.31 0.66 4.62 1 7 C-0.6875 8.5625 -0.6875 8.5625 -3 10 C-6.37036311 9.75925978 -7.58798021 9.41201979 -10 7 C-9.75 3.4375 -9.75 3.4375 -9 0 C-5.93109813 -1.53445094 -3.29905734 -0.54984289 0 0 Z M-6 2 C-5.67 3.65 -5.34 5.3 -5 7 C-4.34 6.67 -3.68 6.34 -3 6 C-3 4.68 -3 3.36 -3 2 C-3.99 2 -4.98 2 -6 2 Z " fill="#D36565" transform="translate(165,110)"/>
<path d="M0 0 C6.15234375 -0.09765625 6.15234375 -0.09765625 8 0 C9 1 9 1 9.09765625 3.06640625 C9.06510417 5.37760417 9.03255208 7.68880208 9 10 C6.03 10 3.06 10 0 10 C0 6.7 0 3.4 0 0 Z M4 3 C4 3.66 4 4.32 4 5 C4.66 5 5.32 5 6 5 C6 4.34 6 3.68 6 3 C5.34 3 4.68 3 4 3 Z " fill="#CB4747" transform="translate(195,109)"/>
<path d="M0 0 C1.65 0 3.3 0 5 0 C5.99 3.3 6.98 6.6 8 10 C4.37 10 0.74 10 -3 10 C-1.125 1.125 -1.125 1.125 0 0 Z " fill="#C43030" transform="translate(256,109)"/>
<path d="M0 0 C3.375 -0.125 3.375 -0.125 7 0 C9 2 9 2 9.1875 5 C9 8 9 8 8 10 C5.36 10 2.72 10 0 10 C0 6.7 0 3.4 0 0 Z M3 3 C3 4.65 3 6.3 3 8 C3.99 7.67 4.98 7.34 6 7 C5.67 5.68 5.34 4.36 5 3 C4.34 3 3.68 3 3 3 Z " fill="#C63636" transform="translate(170,109)"/>
<path d="M0 0 C1.65 0 3.3 0 5 0 C5.99 3.3 6.98 6.6 8 10 C4.37 10 0.74 10 -3 10 C-2.01 6.7 -1.02 3.4 0 0 Z " fill="#CB4747" transform="translate(316,109)"/>
<path d="M0 0 C0.94875 0.04125 1.8975 0.0825 2.875 0.125 C3.535 1.445 4.195 2.765 4.875 4.125 C2.895 4.125 0.915 4.125 -1.125 4.125 C-0.795 5.115 -0.465 6.105 -0.125 7.125 C1.525 6.795 3.175 6.465 4.875 6.125 C4.545 7.445 4.215 8.765 3.875 10.125 C0.58803767 10.92453138 -0.83523192 11.22158936 -4.125 10.125 C-5.50625018 7.36249964 -5.31579306 5.17768901 -5.125 2.125 C-3.125 0.125 -3.125 0.125 0 0 Z " fill="#CE5353" transform="translate(284.125,108.875)"/>
<path d="M0 0 C6.75 -0.125 6.75 -0.125 9 1 C9 2.98 9 4.96 9 7 C7.35 7.33 5.7 7.66 4 8 C4 8.66 4 9.32 4 10 C2.68 10 1.36 10 0 10 C0 6.7 0 3.4 0 0 Z M4 3 C4 3.66 4 4.32 4 5 C4.66 5 5.32 5 6 5 C6 4.34 6 3.68 6 3 C5.34 3 4.68 3 4 3 Z " fill="#C94343" transform="translate(340,109)"/>
<path d="M0 0 C6.75 -0.125 6.75 -0.125 9 1 C9 2.98 9 4.96 9 7 C7.35 7.33 5.7 7.66 4 8 C4 8.66 4 9.32 4 10 C2.68 10 1.36 10 0 10 C0 6.7 0 3.4 0 0 Z M4 3 C4 3.66 4 4.32 4 5 C4.66 5 5.32 5 6 5 C6 4.34 6 3.68 6 3 C5.34 3 4.68 3 4 3 Z " fill="#C94343" transform="translate(327,109)"/>
<path d="M0 0 C0.99 0 1.98 0 3 0 C3 1.32 3 2.64 3 4 C3.99 4 4.98 4 6 4 C6 2.68 6 1.36 6 0 C6.99 0 7.98 0 9 0 C9 3.3 9 6.6 9 10 C8.01 10 7.02 10 6 10 C6 9.01 6 8.02 6 7 C5.01 7 4.02 7 3 7 C3 7.99 3 8.98 3 10 C2.01 10 1.02 10 0 10 C0 6.7 0 3.4 0 0 Z " fill="#C83E3E" transform="translate(293,109)"/>
<path d="M0 0 C2.64 0 5.28 0 8 0 C7.814375 1.093125 7.62875 2.18625 7.4375 3.3125 C6.7421932 6.93624133 6.7421932 6.93624133 8 10 C5.36 10 2.72 10 0 10 C0 6.7 0 3.4 0 0 Z " fill="#CC4D4D" transform="translate(183,109)"/>
<path d="M0 0 C2.97 0 5.94 0 9 0 C9 0.99 9 1.98 9 3 C8.34 3 7.68 3 7 3 C7 5.31 7 7.62 7 10 C5.68 10 4.36 10 3 10 C3 7.69 3 5.38 3 3 C2.01 3 1.02 3 0 3 C0 2.01 0 1.02 0 0 Z " fill="#D26161" transform="translate(266,109)"/>
<path d="M0 0 C1.65 0 3.3 0 5 0 C5.99 3.3 6.98 6.6 8 10 C7.34 10 6.68 10 6 10 C5.67 8.02 5.34 6.04 5 4 C4.401875 4.33 3.80375 4.66 3.1875 5 C1 6 1 6 -2 6 C-1.34 4.02 -0.68 2.04 0 0 Z " fill="#D66F6F" transform="translate(256,109)"/>
<path d="M0 0 C1.32 0 2.64 0 4 0 C4 2.31 4 4.62 4 7 C4.99 7 5.98 7 7 7 C7 7.99 7 8.98 7 10 C5.35 10 3.7 10 2 10 C1.34 6.7 0.68 3.4 0 0 Z " fill="#C94343" transform="translate(235,109)"/>
<path d="M0 0 C0.33 0 0.66 0 1 0 C1 2.97 1 5.94 1 9 C-0.98 9 -2.96 9 -5 9 C-5 6.36 -5 3.72 -5 1 C-3.68 1.33 -2.36 1.66 -1 2 C-0.67 1.34 -0.34 0.68 0 0 Z M-4 2 C-4 2.66 -4 3.32 -4 4 C-3.34 4 -2.68 4 -2 4 C-2 3.34 -2 2.68 -2 2 C-2.66 2 -3.32 2 -4 2 Z " fill="#D15D5D" transform="translate(203,110)"/>
<path d="M0 0 C1.65 0 3.3 0 5 0 C5 3.3 5 6.6 5 10 C4.01 10 3.02 10 2 10 C1.7834375 8.63875 1.7834375 8.63875 1.5625 7.25 C1.13590527 4.78523044 0.64925779 2.41152893 0 0 Z " fill="#C53535" transform="translate(146,109)"/>
<path d="M0 0 C0.99 0.66 1.98 1.32 3 2 C2.67 4.31 2.34 6.62 2 9 C0.35 8.67 -1.3 8.34 -3 8 C-3.33 6.35 -3.66 4.7 -4 3 C-3.67 3.66 -3.34 4.32 -3 5 C-2.34 4.67 -1.68 4.34 -1 4 C-0.34786708 1.97536745 -0.34786708 1.97536745 0 0 Z " fill="#D26060" transform="translate(145,110)"/>
<path d="M0 0 C1.32 0 2.64 0 4 0 C3.34 3.3 2.68 6.6 2 10 C1.67 9.01 1.34 8.02 1 7 C0.01 6.67 -0.98 6.34 -2 6 C-1.49396008 3.83125748 -1.00016187 2.00032373 0 0 Z " fill="#D46868" transform="translate(246,109)"/>
<path d="M0 0 C0.99 0 1.98 0 3 0 C3 1.65 3 3.3 3 5 C3.99 5.33 4.98 5.66 6 6 C5.01 6 4.02 6 3 6 C3 7.32 3 8.64 3 10 C2.01 10 1.02 10 0 10 C0 6.7 0 3.4 0 0 Z " fill="#C53232" transform="translate(293,109)"/>
<path d="M0 0 C0.33 0 0.66 0 1 0 C1 1.98 1 3.96 1 6 C0.195625 6.12375 -0.60875 6.2475 -1.4375 6.375 C-2.7059375 6.684375 -2.7059375 6.684375 -4 7 C-4.33 7.66 -4.66 8.32 -5 9 C-5 6.36 -5 3.72 -5 1 C-3.68 1.33 -2.36 1.66 -1 2 C-0.67 1.34 -0.34 0.68 0 0 Z M-4 2 C-4 2.66 -4 3.32 -4 4 C-3.34 4 -2.68 4 -2 4 C-2 3.34 -2 2.68 -2 2 C-2.66 2 -3.32 2 -4 2 Z " fill="#D67171" transform="translate(348,110)"/>
<path d="M0 0 C0.33 0 0.66 0 1 0 C1 1.98 1 3.96 1 6 C0.195625 6.12375 -0.60875 6.2475 -1.4375 6.375 C-2.7059375 6.684375 -2.7059375 6.684375 -4 7 C-4.33 7.66 -4.66 8.32 -5 9 C-5 6.36 -5 3.72 -5 1 C-3.68 1.33 -2.36 1.66 -1 2 C-0.67 1.34 -0.34 0.68 0 0 Z M-4 2 C-4 2.66 -4 3.32 -4 4 C-3.34 4 -2.68 4 -2 4 C-2 3.34 -2 2.68 -2 2 C-2.66 2 -3.32 2 -4 2 Z " fill="#D67171" transform="translate(335,110)"/>
<path d="M0 0 C0.66 0.33 1.32 0.66 2 1 C2.125 6.75 2.125 6.75 1 9 C0.01 9 -0.98 9 -2 9 C-2.33 8.01 -2.66 7.02 -3 6 C-2.34 6 -1.68 6 -1 6 C-1.33 4.68 -1.66 3.36 -2 2 C-1.34 2 -0.68 2 0 2 C0 1.34 0 0.68 0 0 Z " fill="#CE5454" transform="translate(177,110)"/>
<path d="M0 0 C1.98 0 3.96 0 6 0 C6.33 2.31 6.66 4.62 7 7 C5.68 7.33 4.36 7.66 3 8 C3.0928125 6.576875 3.0928125 6.576875 3.1875 5.125 C3.125625 4.09375 3.06375 3.0625 3 2 C2.01 1.34 1.02 0.68 0 0 Z " fill="#C73B3B" transform="translate(159,110)"/>
<path d="M0 0 C0.66 0.33 1.32 0.66 2 1 C-0.97 3.97 -3.94 6.94 -7 10 C-7 6.04435836 -5.59478606 4.89133304 -3 2 C-2.01 1.34 -1.02 0.68 0 0 Z " fill="#FED79C" transform="translate(289,64)"/>
<path d="M0 0 C0.66 0.33 1.32 0.66 2 1 C-0.97 3.97 -3.94 6.94 -7 10 C-7 6.04435836 -5.59478606 4.89133304 -3 2 C-2.01 1.34 -1.02 0.68 0 0 Z " fill="#FED79C" transform="translate(248,64)"/>
<path d="M0 0 C0.33 0.99 0.66 1.98 1 3 C1.66 3 2.32 3 3 3 C3 3.66 3 4.32 3 5 C2.01 5 1.02 5 0 5 C0 5.66 0 6.32 0 7 C-0.99 7 -1.98 7 -3 7 C-1.125 1.125 -1.125 1.125 0 0 Z " fill="#C12626" transform="translate(316,112)"/>
<path d="M0 0 C1.4540625 0.0309375 1.4540625 0.0309375 2.9375 0.0625 C3.5975 1.3825 4.2575 2.7025 4.9375 4.0625 C1.20262223 3.5645163 -0.87487635 3.18758244 -4.0625 1.0625 C-3.0625 0.0625 -3.0625 0.0625 0 0 Z " fill="#D87878" transform="translate(284.0625,108.9375)"/>
<path d="M0 0 C1.65 0 3.3 0 5 0 C4 2 3 4 2 6 C1.01 5.34 0.02 4.68 -1 4 C-0.67 2.68 -0.34 1.36 0 0 Z " fill="#D77575" transform="translate(316,109)"/>
<path d="M0 0 C-0.33 0.99 -0.66 1.98 -1 3 C-1.99 3 -2.98 3 -4 3 C-4.33 4.32 -4.66 5.64 -5 7 C-5 5.68 -5 4.36 -5 3 C-5.66 3 -6.32 3 -7 3 C-7 2.34 -7 1.68 -7 1 C-4.53721199 -0.231394 -2.7204945 -0.07159196 0 0 Z " fill="#D97B7B" transform="translate(163,109)"/>
</svg>
